HIERARCHY
ROOT Hips
{
	OFFSET -3.958830 18.904000 13.208200
	CHANNELS 6 Xposition Yposition Zposition Zrotation Yrotation Xrotation 
	JOINT LHipJoint
	{
		OFFSET 0.000000 0.000000 0.000000
		CHANNELS 3 Zrotation Yrotation Xrotation
		JOINT LeftUpLeg
		{
			OFFSET 1.800000 -1.400000 0.085000
			CHANNELS 3 Zrotation Yrotation Xrotation
			JOINT LeftLeg
			{
				OFFSET 2.215000 -6.000000 0.000000
				CHANNELS 3 Zrotation Yrotation Xrotation
				JOINT LeftFoot
				{
					OFFSET 2.500000 -6.900000 0.000000
					CHANNELS 3 Zrotation Yrotation Xrotation
					JOINT LeftToeBase
					{
						OFFSET 0.200000 -0.500000 1.950000
						CHANNELS 3 Zrotation Yrotation Xrotation
						End Site
						{
							OFFSET 0.000000 0.000000 0.000000
						}
					}
				}
			}
		}
	}
	JOINT RHipJoint
	{
		OFFSET 0.000000 0.000000 0.000000
		CHANNELS 3 Zrotation Yrotation Xrotation
		JOINT RightUpLeg
		{
			OFFSET -1.800000 -1.400000 0.085000
			CHANNELS 3 Zrotation Yrotation Xrotation
			JOINT RightLeg
			{
				OFFSET -2.215000 -6.000000 0.000000
				CHANNELS 3 Zrotation Yrotation Xrotation
				JOINT RightFoot
				{
					OFFSET -2.500000 -6.900000 0.000000
					CHANNELS 3 Zrotation Yrotation Xrotation
					JOINT RightToeBase
					{
						OFFSET -0.200000 -0.500000 1.950000
						CHANNELS 3 Zrotation Yrotation Xrotation
						End Site
						{
							OFFSET 0.000000 0.000000 0.000000
						}
					}
				}
			}
		}
	}
	JOINT LowerBack
	{
		OFFSET 0.000000 0.000000 0.000000
		CHANNELS 3 Zrotation Yrotation Xrotation
		JOINT Spine
		{
			OFFSET -0.087000 1.940000 -0.288900
			CHANNELS 3 Zrotation Yrotation Xrotation
			JOINT Spine1
			{
				OFFSET 0.000000 1.950000 0.060000
				CHANNELS 3 Zrotation Yrotation Xrotation
				JOINT Neck
				{
					OFFSET 0.000000 0.000000 0.000000
					CHANNELS 3 Zrotation Yrotation Xrotation
					JOINT Neck1
					{
						OFFSET 0.000000 1.600000 0.340000
						CHANNELS 3 Zrotation Yrotation Xrotation
						JOINT Head
						{
							OFFSET 0.000000 1.667000 -0.240000
							CHANNELS 3 Zrotation Yrotation Xrotation
							End Site
							{
								OFFSET 0.000000 0.000000 0.000000
							}
						}
					}
				}
				JOINT LeftShoulder
				{
					OFFSET 0.000000 0.000000 0.000000
					CHANNELS 3 Zrotation Yrotation Xrotation
					JOINT LeftArm
					{
						OFFSET 2.700000 1.550000 -0.730000
						CHANNELS 3 Zrotation Yrotation Xrotation
						JOINT LeftForeArm
						{
							OFFSET 5.450000 0.000000 0.000000
							CHANNELS 3 Zrotation Yrotation Xrotation
							JOINT LeftHand
							{
								OFFSET 3.450000 0.000000 0.000000
								CHANNELS 3 Zrotation Yrotation Xrotation
								JOINT LeftHandIndex1
								{
									OFFSET 0.750000 0.000000 0.000000
									CHANNELS 3 Zrotation Yrotation Xrotation
									End Site
									{
										OFFSET 0.000000 0.000000 0.000000
									}
								}
							}
						}
					}
				}
				JOINT RightShoulder
				{
					OFFSET 0.000000 0.000000 0.000000
					CHANNELS 3 Zrotation Yrotation Xrotation
					JOINT RightArm
					{
						OFFSET -2.700000 1.550000 -0.730000
						CHANNELS 3 Zrotation Yrotation Xrotation
						JOINT RightForeArm
						{
							OFFSET -5.450000 0.000000 0.000000
							CHANNELS 3 Zrotation Yrotation Xrotation
							JOINT RightHand
							{
								OFFSET -3.450000 0.000000 0.000000
								CHANNELS 3 Zrotation Yrotation Xrotation
								JOINT RightHandIndex1
								{
									OFFSET -0.750000 0.000000 0.000000
									CHANNELS 3 Zrotation Yrotation Xrotation
									End Site
									{
										OFFSET 0.000000 0.000000 0.000000
									}
								}
							}
						}
					}
				}
			}
		}
	}
}
MOTION
Frames: 7
Frame Time: 0.016667
1.611440 17.584670 -1.484050 -168.257417 0.991059 161.699587 -14.745546 12.126252 1.809312 8.083208 1.327822 6.683949 -0.291707 5.331324 12.501029 0.039962 4.650697 3.183007 0.418770 0.179230 0.078670 18.849113 -9.350289 5.849571 -14.626530 13.735085 -32.629442 71.358079 -24.630397 24.988986 -2.380187 -9.972564 0.965272 -0.056760 0.260050 0.301250 -4.993992 -0.108275 -8.968031 24.553252 -6.976672 29.245856 -11.146564 -0.093554 19.385549 2.527992 -0.816990 -19.434514 -3.645579 -11.272609 43.849952 16.828250 -18.313880 -20.183300 -7.654656 -34.860009 11.832058 -16.099489 -3.278342 -13.223957 -113.345247 -77.749638 84.819757 -3.347940 2.336474 0.681070 -0.213470 0.218510 0.350240 2.738498 38.918454 13.877286 14.544196 17.707152 -22.536185 33.015273 77.049634 11.381424 1.161344 -2.675454 -0.017830 0.196150 -0.065200 0.138070 
1.558810 17.594660 -1.461150 -167.858971 6.802798 162.089168 -14.722464 12.064297 1.887868 8.236924 1.238413 7.611047 -0.482077 5.298282 11.580751 0.034906 4.736207 3.155290 0.394700 0.157390 0.055790 18.860113 -9.453421 5.833387 -13.765538 12.478131 -33.696873 72.847306 -28.707964 27.481518 -2.533890 -10.532392 0.818424 -0.058050 0.294570 0.331190 -5.046144 0.030338 -8.891544 25.288169 -7.783855 29.557101 -11.859213 -0.525344 20.594156 2.799881 -0.303009 -19.903346 -2.486493 -11.899293 43.514078 16.783030 -18.290960 -20.996250 -6.262283 -35.623957 11.434998 -16.486936 -2.760422 -15.365885 -119.863747 -78.079628 92.608422 -3.257411 2.355178 0.682390 -0.184830 0.218470 0.334760 0.762064 39.243987 15.059125 15.034064 18.224830 -22.626663 53.528355 80.421622 24.824719 0.510150 -3.311859 -0.021430 0.224190 -0.016920 0.138090 
1.486560 17.588720 -1.437600 -166.348141 16.753108 164.417632 -14.782012 12.182771 1.906126 9.563462 1.116272 7.113732 -1.009171 5.464837 11.196845 0.026938 4.824640 3.160503 0.263240 -0.011620 0.023340 18.779299 -9.264232 6.072681 -13.784854 13.848892 -36.361987 78.298271 -31.151729 27.612793 -2.642097 -10.863703 0.770201 -0.149770 0.318460 0.293510 -4.974904 -0.283633 -8.936049 27.724001 -9.078983 31.360209 -13.749923 0.127781 17.542740 2.985068 -0.419589 -21.364395 -3.587750 -13.819997 44.783214 15.998670 -20.834050 -21.042050 -7.173954 -35.094405 10.730320 -15.126107 -2.572071 -14.390577 -118.459654 -77.726851 91.399550 -3.305083 2.202471 0.723650 -0.182320 0.200970 0.281730 0.635129 39.550968 16.451114 14.964281 19.277758 -15.322297 75.705353 87.859792 44.632243 0.652728 -3.186702 -0.089400 0.280680 0.048740 0.112570 
1.421010 17.583010 -1.414760 -163.849580 27.698645 167.252382 -14.898494 12.268946 1.945689 11.429344 0.954000 6.826318 -1.946045 5.678849 10.544674 0.084535 4.858807 3.142658 0.272500 0.025650 0.030620 18.643790 -9.158518 6.168233 -11.931420 14.591173 -38.325403 81.982762 -33.828497 28.091423 -2.780036 -11.200266 0.703297 -0.149510 0.276790 0.284900 -4.905411 -0.466870 -8.962693 28.382712 -9.563921 34.097465 -13.245184 0.119284 13.927562 3.061708 0.007668 -20.059251 -3.076531 -15.626517 45.001142 16.223640 -22.181740 -21.828600 -6.511410 -34.182386 11.708325 -15.676171 -1.076644 -13.734799 -133.811962 -74.621692 105.881677 -3.067085 2.782861 0.715460 -0.204090 0.234130 0.288930 -0.318953 38.665614 12.915874 16.087425 21.018650 -15.423655 101.382464 80.980324 65.040215 4.054162 1.957981 -0.063520 0.258570 0.009370 0.127130 
1.360990 17.589130 -1.442080 -161.385345 37.060641 170.825881 -14.999706 12.230695 1.901181 12.430515 0.837995 6.377345 -2.741883 5.936653 10.787455 -0.001097 5.055190 3.107668 0.207810 -0.094090 -0.003230 18.554409 -9.050167 6.301868 -13.386373 14.295404 -40.751442 87.620031 -34.886259 26.274202 -2.786333 -11.313804 0.682540 -0.159760 0.364640 0.244720 -5.033754 -0.463224 -8.945250 29.232661 -10.021901 34.043399 -12.775950 -0.306221 13.915841 2.887658 -0.746329 -19.508512 -4.261428 -15.443402 44.884871 16.015750 -23.253850 -20.456390 -5.641992 -33.259859 11.677899 -16.054872 0.218240 -13.784705 -140.998528 -73.946635 113.564238 -3.056861 2.851236 0.731710 -0.170940 0.145520 0.271170 -0.729865 38.280538 12.171828 13.485756 24.807241 -11.524024 93.356343 83.038850 58.065047 3.487163 0.639295 -0.162590 0.334960 0.082900 0.102240 
1.305260 17.589560 -1.469840 -158.584511 43.978668 174.935873 -15.066967 12.247969 1.814391 12.691669 0.624875 5.177535 -2.324001 5.840438 11.210652 -0.112259 5.063085 3.146446 0.116030 -0.262930 -0.008620 18.499756 -8.951107 6.450816 -15.437621 12.904083 -43.879835 90.720596 -35.974230 25.277627 -2.766316 -11.388542 0.690062 -0.211150 0.436710 0.187530 -5.080301 -0.646364 -8.985492 29.459237 -10.707940 33.931778 -12.526291 -0.796673 13.167938 2.426293 -0.707427 -19.969568 -4.310497 -15.184783 45.418008 15.369520 -23.874040 -17.768280 -5.274679 -33.986393 11.563898 -15.842686 0.465366 -14.405795 -142.497070 -75.542512 117.633237 -3.046917 2.725665 0.766110 -0.141580 0.062430 0.240400 -0.415743 38.665254 12.596964 13.399398 25.969384 -10.241866 85.949373 84.783807 53.497893 2.705227 -0.516508 -0.277130 0.407160 0.145280 0.054050 
1.269700 17.586290 -1.531950 -155.038528 50.787334 179.734247 -15.133357 12.287447 1.819180 12.939016 0.513507 4.676039 -2.682718 5.859037 10.854976 -0.149536 5.107050 3.112193 0.065450 -0.356900 0.008880 18.454366 -8.751066 6.537228 -17.415315 11.074844 -45.988836 93.714643 -36.559301 23.906457 -2.784319 -11.362258 0.680598 -0.266370 0.416090 0.213870 -4.905272 -1.099587 -9.101079 29.301302 -10.807702 34.990598 -12.107271 -0.814397 10.003489 2.226644 0.173405 -19.740156 -3.192361 -16.077092 46.700123 15.128830 -24.297930 -18.409400 -6.693484 -34.043877 10.944580 -14.017606 0.071882 -13.859395 -129.873950 -78.390517 108.152455 -3.161196 2.295275 0.824970 -0.153040 0.082730 0.189220 0.935831 37.891118 12.031955 15.062450 25.840332 -9.851629 91.126291 82.544990 57.297373 3.316859 0.437430 -0.296170 0.395100 0.194560 0.015160 
